<?xml version="1.0" encoding="UTF-8" standalone="no"?>
<!DOCTYPE svg PUBLIC "-//W3C//DTD SVG 1.1//EN" "http://www.w3.org/Graphics/SVG/1.1/DTD/svg11.dtd">
<svg width="100%" height="100%" viewBox="0 0 300 300" version="1.1" xmlns="http://www.w3.org/2000/svg" xmlns:xlink="http://www.w3.org/1999/xlink" xml:space="preserve" style="fill-rule:evenodd;clip-rule:evenodd;stroke-linejoin:round;stroke-miterlimit:1.41421;">
    <g transform="matrix(2.43988,0,0,2.43988,150,150)">
        <g transform="matrix(1,0,0,1,-39.178,-50)">
            <clipPath id="_clip1">
                <rect x="0" y="0" width="78.356" height="100"/>
            </clipPath>
            <g clip-path="url(#_clip1)">
                <g transform="matrix(0.5,0,0,0.5,-174.04,-256.35)">
                    <g>
                        <g transform="matrix(2.2589,0,0,-2.2589,372.58,651.47)">
                            <path d="M0,0L23.811,22.878L47.665,-0.065C51.626,6.986 54.634,14.691 56.48,22.937C56.567,23.327 56.636,23.714 56.719,24.106L-9.076,24.106C-7.296,15.619 -4.213,7.5 0,0" style="fill:rgb(232,119,34);fill-rule:nonzero;"/>
                        </g>
                        <path d="M462.28,563.32L459.4,563.32L459.4,557.835L462.28,557.835L462.28,563.32ZM462.28,579.546L459.4,579.546L459.4,574.061L462.28,574.061L462.28,579.546ZM458.347,585.946C456.843,586.162 451.476,586.881 446.499,586.881C442.451,586.881 439.361,586.54 436.634,586.239L430.246,585.726L430.28,586.284L430.28,587.882C429.672,588.11 428.152,588.607 426.356,588.607C424.587,588.607 423.157,588.119 422.581,587.888L422.581,585.729L416.22,586.242C413.494,586.54 410.403,586.881 406.36,586.881C401.383,586.881 396.012,586.162 394.505,585.946L394.505,552.602C394.866,552.502 395.804,552.251 396.486,552.068L396.484,582.25L396.71,582.404C396.816,582.474 399.344,584.128 405.843,584.128C409.112,584.128 411.619,583.592 414.05,583.073C416.128,582.63 418.091,582.21 420.302,582.21C424.533,582.21 425.857,584.43 425.907,584.521L425.961,584.494L426.935,584.494L426.993,584.521C427.05,584.43 428.371,582.21 432.602,582.21C434.809,582.21 436.777,582.63 438.86,583.073C441.288,583.592 443.8,584.128 447.069,584.128C453.565,584.128 456.098,582.474 456.202,582.404L456.43,582.25L456.43,552.082C457.103,552.265 457.997,552.505 458.348,552.602L458.348,585.946L458.347,585.946ZM393.454,563.32L390.576,563.32L390.576,557.835L393.454,557.835L393.454,563.32ZM393.454,579.546L390.576,579.546L390.576,574.061L393.454,574.061L393.454,579.546ZM397.536,548.244C398.702,548.752 401.239,549.572 405.842,549.572C409.113,549.572 411.618,549.034 414.049,548.517C416.127,548.072 418.093,547.656 420.306,547.656C424.54,547.656 425.857,549.87 425.911,549.965L425.922,549.965L425.922,583C424.991,582.189 423.252,581.2 420.302,581.2C417.982,581.2 415.958,581.631 413.823,582.087C411.451,582.591 408.996,583.115 405.842,583.115C400.448,583.115 398.067,581.979 397.536,581.687L397.536,548.252L397.536,548.244ZM426.972,549.951L426.99,549.974C427.042,549.875 428.366,547.656 432.599,547.656C434.808,547.656 436.776,548.076 438.859,548.519C441.285,549.039 443.797,549.574 447.063,549.574C451.669,549.574 454.21,548.756 455.376,548.244L455.376,581.69C454.845,581.981 452.458,583.117 447.068,583.117C443.912,583.117 441.459,582.593 439.082,582.09C436.943,581.633 434.921,581.202 432.601,581.202C429.644,581.202 427.903,582.198 426.972,583.011L426.972,549.963L426.972,549.951ZM504.095,541.889C497.779,543.814 491.063,544.855 484.094,544.855C459.499,544.855 438.025,531.932 426.428,512.697C414.833,531.932 393.362,544.855 368.773,544.855C361.809,544.855 355.102,543.816 348.795,541.898C347.144,560.677 348.348,579.2 352.082,597.012L500.712,597.012C504.6,578.43 505.65,559.909 504.098,541.889" style="fill-rule:nonzero;"/>
                        <g transform="matrix(2.2589,0,0,-2.2589,389.73,677.02)">
                            <path d="M0,0C4.659,-5.889 10.104,-11.211 16.231,-15.792C22.296,-11.271 27.774,-5.984 32.494,-0.039L16.222,15.78L0,0L0,0Z" style="fill:rgb(232,119,34);fill-rule:nonzero;"/>
                        </g>
                    </g>
                    <g transform="matrix(2.2589,0,0,-2.2589,372.58,651.47)">
                        <path d="M0,0C2.223,-3.958 4.761,-7.741 7.589,-11.314L23.811,4.465L40.083,-11.353C42.892,-7.818 45.43,-4.047 47.665,-0.065L23.811,22.878L0,0Z" style="fill:rgb(244,111,27);fill-rule:nonzero;"/>
                    </g>
                    <g transform="matrix(2.2589,0,0,-2.2589,372.58,651.47)">
                        <path d="M0,0C2.223,-3.958 4.761,-7.741 7.589,-11.314L23.811,4.465L40.083,-11.353C42.892,-7.818 45.43,-4.047 47.665,-0.065L23.811,22.878L0,0Z" style="fill-rule:nonzero;"/>
                    </g>
                    <rect x="459.4" y="574.065" width="2.88" height="5.485" style="fill:white;fill-rule:nonzero;"/>
                    <g transform="matrix(2.2589,0,0,-2.2589,456.43,582.25)">
                        <path d="M0,0L-0.101,-0.067C-0.147,-0.099 -1.268,-0.831 -4.144,-0.831C-5.592,-0.831 -6.703,-0.593 -7.778,-0.364C-8.7,-0.168 -9.571,0.018 -10.548,0.018C-12.421,0.018 -13.006,-0.965 -13.031,-1.005L-13.057,-0.993L-13.488,-0.993L-13.513,-1.005C-13.535,-0.965 -14.12,0.018 -15.993,0.018C-16.972,0.018 -17.841,-0.168 -18.761,-0.364C-19.837,-0.593 -20.947,-0.831 -22.394,-0.831C-25.271,-0.831 -26.391,-0.099 -26.438,-0.067L-26.537,0L-26.536,13.361C-26.838,13.28 -27.253,13.169 -27.413,13.126L-27.413,-1.636C-26.746,-1.732 -24.368,-2.05 -22.165,-2.05C-20.375,-2.05 -19.007,-1.899 -17.8,-1.767L-14.984,-1.54L-14.984,-2.496C-14.729,-2.598 -14.096,-2.814 -13.314,-2.814C-12.518,-2.814 -11.845,-2.594 -11.576,-2.493L-11.576,-1.786L-11.591,-1.539L-8.763,-1.766C-7.556,-1.899 -6.188,-2.05 -4.396,-2.05C-2.193,-2.05 0.183,-1.732 0.849,-1.636L0.849,13.126C0.694,13.168 0.298,13.274 0,13.355L0,0L0,0Z" style="fill:white;fill-rule:nonzero;"/>
                    </g>
                    <rect x="459.4" y="557.835" width="2.88" height="5.485" style="fill:white;fill-rule:nonzero;"/>
                    <rect x="390.58" y="557.835" width="2.878" height="5.485" style="fill:white;fill-rule:nonzero;"/>
                    <g transform="matrix(2.2589,0,0,-2.2589,413.82,582.08)">
                        <path d="M0,0C0.945,0.202 1.841,0.393 2.868,0.393C4.174,0.393 4.944,-0.045 5.356,-0.404L5.356,14.22L5.351,14.216C5.327,14.259 4.744,15.238 2.87,15.238C1.89,15.238 1.02,15.054 0.1,14.857C-0.976,14.628 -2.085,14.39 -3.533,14.39C-5.571,14.39 -6.694,14.753 -7.21,14.978L-7.21,0.177C-6.975,0.048 -5.921,-0.455 -3.533,-0.455C-2.137,-0.455 -1.05,-0.223 0,0" style="fill:white;fill-rule:nonzero;"/>
                    </g>
                    <rect x="390.58" y="574.065" width="2.878" height="5.485" style="fill:white;fill-rule:nonzero;"/>
                    <g transform="matrix(2.2589,0,0,-2.2589,439.08,582.08)">
                        <path d="M0,0C1.052,-0.223 2.137,-0.455 3.535,-0.455C5.921,-0.455 6.978,0.048 7.213,0.177L7.213,14.983C6.697,14.757 5.571,14.394 3.533,14.394C2.087,14.394 0.975,14.631 -0.099,14.861C-1.021,15.057 -1.892,15.243 -2.871,15.243C-4.745,15.243 -5.33,14.261 -5.353,14.217L-5.362,14.222L-5.362,-0.408C-4.949,-0.047 -4.178,0.393 -2.87,0.393C-1.842,0.393 -0.948,0.202 0,0" style="fill:white;fill-rule:nonzero;"/>
                    </g>
                    <g transform="matrix(2.2589,0,0,-2.2589,407.83,554.54)">
                        <path d="M0,0C-0.228,-0.015 -0.38,-0.133 -0.452,-0.286L-1.408,-2.363C-1.408,-2.363 -1.454,-2.392 -1.485,-2.392C-1.517,-2.392 -1.552,-2.363 -1.571,-2.297C-1.597,-2.224 -1.714,-1.933 -1.968,-1.369L-2.273,-0.692C-2.386,-0.44 -2.472,-0.277 -2.502,-0.227C-2.614,-0.04 -2.752,-0.025 -2.905,0C-2.925,0.025 -2.925,0.044 -2.925,0.064C-2.925,0.083 -2.925,0.098 -2.91,0.123L-2.752,0.123C-2.574,0.123 -2.421,0.114 -2.29,0.114C-2.132,0.114 -1.866,0.128 -1.688,0.128L-1.587,0.128C-1.566,0.123 -1.561,0.089 -1.561,0.073C-1.561,0.064 -1.561,0.025 -1.571,0.004C-1.694,-0.006 -1.953,0 -1.953,-0.158C-1.953,-0.192 -1.947,-0.252 -1.927,-0.297L-1.302,-1.75L-0.773,-0.544C-0.712,-0.406 -0.707,-0.286 -0.707,-0.227C-0.707,-0.089 -0.803,-0.031 -1.067,0C-1.072,0.019 -1.083,0.038 -1.083,0.06C-1.083,0.079 -1.072,0.114 -1.067,0.128L-0.991,0.128C-0.875,0.128 -0.758,0.114 -0.493,0.114C-0.447,0.114 -0.263,0.123 -0.177,0.123L0.006,0.123C0.016,0.104 0.026,0.089 0.026,0.07C0.026,0.054 0.016,0.016 0,0" style="fill-rule:nonzero;"/>
                    </g>
                    <g transform="matrix(2.2589,0,0,-2.2589,413.87,559.78)">
                        <path d="M0,0C-0.764,0 -1.181,0.019 -1.283,0.019C-1.364,0.019 -1.553,0.025 -1.649,0.025C-1.75,0.025 -2,0.01 -2.265,0.01L-2.416,0.014C-2.427,0.035 -2.432,0.049 -2.432,0.068C-2.432,0.088 -2.432,0.119 -2.422,0.139C-2.218,0.153 -2.072,0.188 -2.04,0.217C-1.996,0.267 -1.97,0.371 -1.959,0.592C-1.955,0.706 -1.949,0.83 -1.949,0.959C-1.949,1.146 -1.955,1.374 -1.955,1.649C-1.955,1.838 -1.959,1.951 -1.959,2.03C-1.965,2.304 -2.096,2.304 -2.382,2.332C-2.392,2.357 -2.396,2.382 -2.396,2.396C-2.396,2.411 -2.387,2.45 -2.372,2.461L-2.234,2.461C-2.138,2.461 -1.888,2.455 -1.41,2.455C-0.967,2.455 -0.545,2.445 -0.448,2.445C-0.392,2.445 -0.219,2.44 -0.188,2.44C-0.127,2.44 -0.102,2.436 -0.102,2.386L-0.071,1.828C-0.102,1.813 -0.112,1.809 -0.144,1.809C-0.163,1.809 -0.179,1.809 -0.199,1.813C-0.367,2.09 -0.448,2.145 -0.58,2.238C-0.627,2.272 -0.692,2.292 -0.799,2.304C-0.836,2.304 -0.921,2.307 -1.139,2.307C-1.313,2.307 -1.404,2.304 -1.425,2.298C-1.455,2.298 -1.451,2.304 -1.461,2.203C-1.466,2.145 -1.471,2.036 -1.471,1.709L-1.471,1.394L-1.384,1.394C-1.272,1.394 -1.16,1.403 -1.099,1.423C-0.997,1.448 -0.896,1.516 -0.839,1.596C-0.82,1.626 -0.794,1.759 -0.784,1.803C-0.764,1.813 -0.733,1.819 -0.702,1.819C-0.678,1.819 -0.652,1.813 -0.637,1.799C-0.641,1.699 -0.662,1.512 -0.662,1.275C-0.662,1.156 -0.646,0.893 -0.646,0.786C-0.672,0.771 -0.682,0.765 -0.718,0.765C-0.739,0.765 -0.768,0.771 -0.789,0.775C-0.815,0.983 -0.845,1.126 -1.028,1.2C-1.13,1.24 -1.211,1.249 -1.308,1.249C-1.359,1.249 -1.425,1.246 -1.476,1.24L-1.476,0.598C-1.476,0.449 -1.466,0.361 -1.445,0.312C-1.425,0.267 -1.364,0.183 -1.293,0.173C-1.257,0.168 -1.192,0.158 -1.058,0.158L-0.692,0.158C-0.601,0.158 -0.468,0.168 -0.422,0.197C-0.332,0.252 -0.098,0.5 -0.016,0.721C0.015,0.736 0.036,0.736 0.062,0.736C0.081,0.736 0.107,0.731 0.132,0.716L0.132,0.068C0.132,0.01 0.091,0 0,0" style="fill-rule:nonzero;"/>
                    </g>
                    <g transform="matrix(2.2589,0,0,-2.2589,420.73,555.99)">
                        <path d="M0,0C-0.02,0 -0.041,0.005 -0.071,0.01C-0.127,0.158 -0.198,0.296 -0.26,0.372C-0.36,0.495 -0.462,0.577 -0.727,0.608C-0.783,0.612 -0.926,0.612 -0.971,0.612L-0.977,-0.469C-0.977,-0.637 -0.977,-0.84 -0.971,-1.211C-0.967,-1.497 -0.834,-1.497 -0.529,-1.538C-0.514,-1.566 -0.509,-1.586 -0.509,-1.607C-0.509,-1.626 -0.514,-1.645 -0.525,-1.666L-0.635,-1.666C-0.814,-1.666 -1.164,-1.655 -1.272,-1.655C-1.348,-1.655 -1.735,-1.67 -1.917,-1.67C-1.934,-1.645 -1.938,-1.645 -1.938,-1.607C-1.938,-1.586 -1.934,-1.566 -1.923,-1.542C-1.521,-1.512 -1.481,-1.438 -1.465,-1.314C-1.455,-1.236 -1.455,-0.909 -1.455,-0.583L-1.455,0.316C-1.455,0.425 -1.46,0.539 -1.475,0.612C-1.551,0.612 -1.801,0.612 -1.872,0.589C-2.076,0.514 -2.219,0.345 -2.376,0.049C-2.395,0.04 -2.427,0.04 -2.442,0.04C-2.468,0.04 -2.488,0.049 -2.503,0.064L-2.503,0.696C-2.503,0.75 -2.494,0.765 -2.427,0.765C-2.366,0.765 -2.274,0.76 -2.151,0.76C-2.061,0.76 -1.694,0.756 -1.231,0.756C-0.625,0.756 -0.172,0.77 -0.06,0.77C0,0.77 0.041,0.77 0.061,0.75C0.071,0.741 0.067,0.696 0.067,0.662L0.067,0.029C0.051,0.01 0.026,0 0,0" style="fill-rule:nonzero;"/>
                    </g>
                    <g transform="matrix(2.2589,0,0,-2.2589,407.59,564.67)">
                        <path d="M0,0C-0.019,0 -0.039,0.006 -0.07,0.011C-0.126,0.159 -0.198,0.298 -0.26,0.371C-0.361,0.494 -0.462,0.579 -0.728,0.608C-0.783,0.613 -0.926,0.613 -0.971,0.613L-0.977,-0.468C-0.977,-0.637 -0.977,-0.841 -0.971,-1.21C-0.965,-1.497 -0.834,-1.497 -0.529,-1.537C-0.514,-1.566 -0.509,-1.586 -0.509,-1.605C-0.509,-1.624 -0.514,-1.644 -0.523,-1.665L-0.635,-1.665C-0.814,-1.665 -1.164,-1.655 -1.272,-1.655C-1.347,-1.655 -1.735,-1.669 -1.917,-1.669C-1.933,-1.644 -1.937,-1.644 -1.937,-1.605C-1.937,-1.586 -1.933,-1.566 -1.923,-1.542C-1.52,-1.511 -1.481,-1.438 -1.465,-1.314C-1.455,-1.235 -1.455,-0.909 -1.455,-0.582L-1.455,0.317C-1.455,0.425 -1.46,0.541 -1.475,0.613C-1.551,0.613 -1.801,0.613 -1.872,0.589C-2.075,0.515 -2.218,0.346 -2.376,0.05C-2.395,0.04 -2.427,0.04 -2.441,0.04C-2.467,0.04 -2.488,0.05 -2.504,0.065L-2.504,0.698C-2.504,0.752 -2.493,0.767 -2.427,0.767C-2.366,0.767 -2.273,0.762 -2.151,0.762C-2.061,0.762 -1.693,0.758 -1.231,0.758C-0.625,0.758 -0.173,0.771 -0.06,0.771C0,0.771 0.042,0.771 0.061,0.752C0.071,0.742 0.066,0.698 0.066,0.662L0.066,0.031C0.051,0.011 0.026,0 0,0" style="fill-rule:nonzero;"/>
                    </g>
                    <g transform="matrix(2.2589,0,0,-2.2589,414.12,568.46)">
                        <path d="M0,0C-0.763,0 -1.181,0.019 -1.283,0.019C-1.364,0.019 -1.553,0.024 -1.649,0.024C-1.751,0.024 -1.999,0.01 -2.265,0.01L-2.417,0.014C-2.427,0.035 -2.432,0.049 -2.432,0.07C-2.432,0.089 -2.432,0.118 -2.423,0.137C-2.219,0.153 -2.072,0.187 -2.041,0.217C-1.996,0.266 -1.971,0.37 -1.959,0.593C-1.955,0.707 -1.949,0.83 -1.949,0.959C-1.949,1.146 -1.955,1.373 -1.955,1.65C-1.955,1.838 -1.959,1.952 -1.959,2.031C-1.964,2.302 -2.097,2.302 -2.381,2.333C-2.391,2.356 -2.398,2.381 -2.398,2.396C-2.398,2.412 -2.387,2.45 -2.372,2.46L-2.234,2.46C-2.138,2.46 -1.888,2.456 -1.41,2.456C-0.968,2.456 -0.544,2.446 -0.448,2.446C-0.393,2.446 -0.22,2.441 -0.188,2.441C-0.127,2.441 -0.102,2.437 -0.102,2.387L-0.071,1.829C-0.102,1.814 -0.113,1.809 -0.144,1.809C-0.163,1.809 -0.178,1.809 -0.199,1.814C-0.367,2.091 -0.448,2.145 -0.58,2.238C-0.626,2.274 -0.692,2.292 -0.8,2.302C-0.835,2.302 -0.922,2.307 -1.141,2.307C-1.314,2.307 -1.404,2.302 -1.425,2.298C-1.455,2.298 -1.451,2.302 -1.461,2.204C-1.465,2.145 -1.471,2.035 -1.471,1.71L-1.471,1.394L-1.384,1.394C-1.272,1.394 -1.16,1.403 -1.1,1.423C-0.999,1.448 -0.897,1.518 -0.84,1.596C-0.82,1.625 -0.795,1.758 -0.784,1.803C-0.763,1.814 -0.733,1.818 -0.702,1.818C-0.678,1.818 -0.652,1.814 -0.637,1.798C-0.641,1.7 -0.663,1.512 -0.663,1.275C-0.663,1.156 -0.646,0.894 -0.646,0.786C-0.672,0.77 -0.682,0.766 -0.718,0.766C-0.739,0.766 -0.769,0.77 -0.789,0.775C-0.814,0.982 -0.844,1.127 -1.028,1.2C-1.13,1.24 -1.211,1.25 -1.307,1.25C-1.359,1.25 -1.425,1.244 -1.477,1.24L-1.477,0.598C-1.477,0.449 -1.465,0.36 -1.445,0.31C-1.425,0.266 -1.364,0.182 -1.294,0.172C-1.257,0.168 -1.191,0.157 -1.059,0.157L-0.692,0.157C-0.602,0.157 -0.469,0.168 -0.423,0.197C-0.332,0.252 -0.097,0.499 -0.016,0.721C0.014,0.736 0.036,0.736 0.06,0.736C0.08,0.736 0.106,0.731 0.132,0.716L0.132,0.07C0.132,0.01 0.091,0 0,0" style="fill-rule:nonzero;"/>
                    </g>
                    <g transform="matrix(2.2589,0,0,-2.2589,418.13,568.59)">
                        <path d="M0,0C-0.209,0 -0.442,0.079 -0.585,0.148C-0.605,0.159 -0.656,0.168 -0.676,0.168C-0.707,0.168 -0.783,0.134 -0.864,0.074C-0.925,0.074 -0.992,0.104 -1.012,0.148C-1.012,0.197 -0.966,0.351 -0.966,0.45C-0.966,0.504 -0.982,0.781 -0.988,0.845C-0.962,0.88 -0.915,0.901 -0.875,0.901C-0.859,0.901 -0.85,0.901 -0.834,0.893C-0.783,0.795 -0.676,0.529 -0.6,0.42C-0.442,0.242 -0.209,0.163 -0.04,0.163C0.147,0.163 0.285,0.197 0.367,0.283C0.484,0.391 0.509,0.46 0.509,0.579C0.509,0.667 0.489,0.741 0.439,0.801C0.377,0.88 0.321,0.915 0.173,0.984C0.066,1.033 -0.325,1.126 -0.468,1.201C-0.641,1.28 -0.728,1.349 -0.818,1.444C-0.925,1.573 -0.962,1.75 -0.962,1.888C-0.962,2.284 -0.641,2.575 -0.188,2.575C-0.015,2.575 0.219,2.561 0.413,2.407C0.453,2.452 0.509,2.501 0.56,2.545C0.637,2.545 0.688,2.505 0.692,2.48C0.688,2.421 0.652,2.269 0.652,2.146C0.652,2.08 0.692,1.823 0.692,1.784C0.667,1.77 0.637,1.75 0.596,1.75C0.586,1.75 0.565,1.755 0.55,1.759C0.479,1.878 0.418,2.077 0.336,2.184C0.224,2.338 0.057,2.396 -0.161,2.396C-0.412,2.396 -0.62,2.244 -0.62,2.032C-0.62,1.829 -0.453,1.73 -0.31,1.67C-0.203,1.631 -0.076,1.582 0.072,1.538C0.26,1.478 0.397,1.428 0.474,1.39C0.765,1.245 0.891,1.033 0.891,0.741C0.891,0.291 0.468,0 0,0" style="fill-rule:nonzero;"/>
                    </g>
                    <g transform="matrix(2.2589,0,0,-2.2589,409.87,577.15)">
                        <path d="M0,0C-0.764,0 -1.181,0.021 -1.282,0.021C-1.364,0.021 -1.552,0.025 -1.649,0.025C-1.751,0.025 -1.999,0.011 -2.264,0.011L-2.418,0.016C-2.427,0.035 -2.432,0.05 -2.432,0.07C-2.432,0.09 -2.432,0.119 -2.422,0.14C-2.219,0.154 -2.072,0.189 -2.041,0.218C-1.995,0.268 -1.97,0.372 -1.959,0.594C-1.954,0.708 -1.95,0.831 -1.95,0.96C-1.95,1.146 -1.954,1.374 -1.954,1.65C-1.954,1.839 -1.959,1.953 -1.959,2.031C-1.964,2.304 -2.097,2.304 -2.381,2.333C-2.392,2.357 -2.397,2.382 -2.397,2.396C-2.397,2.412 -2.386,2.452 -2.371,2.462L-2.233,2.462C-2.137,2.462 -1.887,2.456 -1.409,2.456C-0.967,2.456 -0.543,2.447 -0.447,2.447C-0.392,2.447 -0.219,2.443 -0.188,2.443C-0.127,2.443 -0.101,2.437 -0.101,2.387L-0.071,1.829C-0.101,1.814 -0.112,1.809 -0.142,1.809C-0.164,1.809 -0.178,1.809 -0.199,1.814C-0.367,2.09 -0.447,2.145 -0.58,2.239C-0.626,2.274 -0.693,2.293 -0.8,2.304C-0.834,2.304 -0.922,2.308 -1.14,2.308C-1.313,2.308 -1.405,2.304 -1.424,2.299C-1.455,2.299 -1.45,2.304 -1.46,2.204C-1.466,2.145 -1.471,2.037 -1.471,1.71L-1.471,1.394L-1.384,1.394C-1.272,1.394 -1.161,1.404 -1.099,1.424C-0.998,1.449 -0.896,1.518 -0.84,1.596C-0.818,1.626 -0.794,1.759 -0.784,1.804C-0.764,1.814 -0.733,1.819 -0.703,1.819C-0.677,1.819 -0.651,1.814 -0.636,1.799C-0.642,1.701 -0.661,1.512 -0.661,1.276C-0.661,1.156 -0.645,0.895 -0.645,0.787C-0.672,0.771 -0.682,0.767 -0.716,0.767C-0.738,0.767 -0.768,0.771 -0.789,0.775C-0.815,0.984 -0.844,1.128 -1.027,1.2C-1.129,1.241 -1.211,1.251 -1.308,1.251C-1.358,1.251 -1.424,1.247 -1.476,1.241L-1.476,0.598C-1.476,0.451 -1.466,0.362 -1.445,0.312C-1.424,0.268 -1.364,0.183 -1.293,0.173C-1.257,0.168 -1.191,0.159 -1.059,0.159L-0.693,0.159C-0.601,0.159 -0.468,0.168 -0.422,0.199C-0.331,0.252 -0.097,0.5 -0.015,0.721C0.015,0.737 0.036,0.737 0.06,0.737C0.081,0.737 0.106,0.731 0.133,0.718L0.133,0.07C0.133,0.011 0.092,0 0,0" style="fill-rule:nonzero;"/>
                    </g>
                    <g transform="matrix(2.2589,0,0,-2.2589,418.18,571.88)">
                        <path d="M0,0C-0.255,-0.011 -0.478,-0.145 -0.478,-0.544L-0.484,-1.804C-0.484,-1.853 -0.464,-2.209 -0.464,-2.347C-0.5,-2.373 -0.544,-2.387 -0.565,-2.387C-0.58,-2.387 -0.602,-2.373 -0.632,-2.347L-2.413,-0.485L-2.392,-0.865L-2.387,-1.552C-2.387,-1.606 -2.377,-1.735 -2.366,-1.829C-2.351,-1.981 -2.305,-2.036 -2.24,-2.091C-2.148,-2.165 -2.001,-2.189 -1.899,-2.199C-1.888,-2.219 -1.884,-2.239 -1.884,-2.254C-1.884,-2.264 -1.888,-2.293 -1.903,-2.318L-2.097,-2.318C-2.26,-2.318 -2.387,-2.313 -2.561,-2.313C-2.673,-2.313 -2.825,-2.323 -2.936,-2.323L-3.018,-2.323C-3.023,-2.308 -3.029,-2.278 -3.029,-2.269C-3.029,-2.254 -3.029,-2.235 -3.013,-2.204C-2.885,-2.194 -2.687,-2.135 -2.61,-2.036C-2.581,-1.971 -2.571,-1.858 -2.571,-1.74L-2.571,-0.861C-2.571,-0.718 -2.575,-0.648 -2.581,-0.51C-2.586,-0.396 -2.61,-0.312 -2.667,-0.243C-2.677,-0.228 -2.733,-0.168 -2.794,-0.114C-2.85,-0.064 -2.992,-0.025 -3.079,0.01C-3.09,0.029 -3.094,0.059 -3.094,0.063C-3.094,0.079 -3.09,0.109 -3.079,0.129L-3.013,0.129C-2.962,0.129 -2.687,0.113 -2.479,0.113L-2.357,0.113C-2.331,0.103 -2.29,0.079 -2.276,0.063L-0.957,-1.335C-0.855,-1.444 -0.728,-1.587 -0.657,-1.675L-0.657,-0.667C-0.657,-0.529 -0.667,-0.436 -0.672,-0.385C-0.682,-0.282 -0.708,-0.193 -0.749,-0.123C-0.789,-0.06 -1.034,-0.025 -1.16,0C-1.171,0.024 -1.177,0.054 -1.177,0.074C-1.177,0.089 -1.177,0.103 -1.166,0.129L-1.09,0.129C-0.968,0.129 -0.769,0.109 -0.646,0.109C-0.346,0.109 -0.25,0.118 -0.097,0.118L0,0.118C0.01,0.098 0.014,0.074 0.014,0.059C0.014,0.049 0.01,0.019 0,0" style="fill-rule:nonzero;"/>
                    </g>
                    <g transform="matrix(2.2589,0,0,-2.2589,438.35,554.51)">
                        <path d="M0,0C-0.255,-0.01 -0.478,-0.142 -0.478,-0.544L-0.483,-1.804C-0.483,-1.854 -0.463,-2.209 -0.463,-2.347C-0.499,-2.372 -0.545,-2.386 -0.564,-2.386C-0.58,-2.386 -0.601,-2.372 -0.631,-2.347L-2.413,-0.484L-2.392,-0.864L-2.387,-1.552C-2.387,-1.606 -2.376,-1.734 -2.366,-1.828C-2.35,-1.982 -2.305,-2.036 -2.238,-2.091C-2.147,-2.165 -2,-2.19 -1.898,-2.2C-1.888,-2.219 -1.882,-2.238 -1.882,-2.253C-1.882,-2.264 -1.888,-2.293 -1.903,-2.318L-2.096,-2.318C-2.26,-2.318 -2.387,-2.313 -2.56,-2.313C-2.672,-2.313 -2.824,-2.323 -2.936,-2.323L-3.017,-2.323C-3.022,-2.307 -3.028,-2.278 -3.028,-2.269C-3.028,-2.253 -3.028,-2.234 -3.013,-2.204C-2.885,-2.194 -2.687,-2.135 -2.61,-2.036C-2.58,-1.971 -2.57,-1.858 -2.57,-1.74L-2.57,-0.86C-2.57,-0.716 -2.575,-0.647 -2.58,-0.51C-2.584,-0.396 -2.61,-0.312 -2.667,-0.242C-2.676,-0.227 -2.733,-0.167 -2.795,-0.113C-2.849,-0.064 -2.992,-0.025 -3.078,0.01C-3.089,0.029 -3.094,0.06 -3.094,0.064C-3.094,0.079 -3.089,0.108 -3.078,0.129L-3.013,0.129C-2.962,0.129 -2.687,0.113 -2.478,0.113L-2.356,0.113C-2.331,0.104 -2.29,0.079 -2.275,0.064L-0.957,-1.335C-0.856,-1.443 -0.728,-1.587 -0.656,-1.675L-0.656,-0.667C-0.656,-0.529 -0.666,-0.435 -0.672,-0.387C-0.682,-0.281 -0.708,-0.192 -0.748,-0.123C-0.789,-0.06 -1.033,-0.025 -1.16,0C-1.17,0.025 -1.175,0.054 -1.175,0.073C-1.175,0.088 -1.175,0.104 -1.165,0.129L-1.089,0.129C-0.967,0.129 -0.768,0.108 -0.646,0.108C-0.345,0.108 -0.249,0.118 -0.096,0.118L0,0.118C0.01,0.098 0.015,0.073 0.015,0.06C0.015,0.05 0.01,0.019 0,0" style="fill-rule:nonzero;"/>
                    </g>
                    <g transform="matrix(2.2589,0,0,-2.2589,443.35,555.04)">
                        <path d="M0,0C-0.121,0.164 -0.274,0.257 -0.503,0.257C-0.712,0.257 -0.849,0.169 -0.972,0C-1.118,-0.187 -1.202,-0.484 -1.202,-0.865C-1.202,-1.241 -1.124,-1.536 -0.982,-1.724C-0.855,-1.902 -0.708,-1.997 -0.483,-1.997C-0.219,-1.997 -0.061,-1.873 0.067,-1.66C0.173,-1.472 0.229,-1.21 0.229,-0.875C0.229,-0.469 0.148,-0.183 0,0M0.407,-1.788C0.163,-2.026 -0.173,-2.159 -0.488,-2.159C-0.789,-2.159 -1.134,-2.036 -1.374,-1.807C-1.633,-1.561 -1.75,-1.235 -1.75,-0.875C-1.75,-0.523 -1.633,-0.198 -1.374,0.056C-1.094,0.311 -0.789,0.421 -0.483,0.421C-0.264,0.421 -0.057,0.365 0.179,0.239C0.575,-0.004 0.799,-0.404 0.799,-0.85C0.799,-1.197 0.661,-1.542 0.407,-1.788" style="fill-rule:nonzero;"/>
                    </g>
                    <g transform="matrix(2.2589,0,0,-2.2589,452.38,554.54)">
                        <path d="M0,0C-0.229,-0.015 -0.381,-0.133 -0.453,-0.286L-1.409,-2.363C-1.409,-2.363 -1.456,-2.392 -1.486,-2.392C-1.517,-2.392 -1.552,-2.363 -1.572,-2.297C-1.597,-2.224 -1.716,-1.933 -1.969,-1.369L-2.274,-0.692C-2.387,-0.44 -2.473,-0.277 -2.504,-0.227C-2.617,-0.04 -2.752,-0.025 -2.906,0C-2.925,0.025 -2.925,0.044 -2.925,0.064C-2.925,0.083 -2.925,0.098 -2.911,0.123L-2.752,0.123C-2.574,0.123 -2.422,0.114 -2.29,0.114C-2.133,0.114 -1.867,0.128 -1.69,0.128L-1.588,0.128C-1.567,0.123 -1.561,0.089 -1.561,0.073C-1.561,0.064 -1.561,0.025 -1.572,0.004C-1.694,-0.006 -1.954,0 -1.954,-0.158C-1.954,-0.192 -1.949,-0.252 -1.928,-0.297L-1.303,-1.75L-0.773,-0.544C-0.712,-0.406 -0.707,-0.286 -0.707,-0.227C-0.707,-0.089 -0.805,-0.031 -1.068,0C-1.074,0.019 -1.084,0.038 -1.084,0.06C-1.084,0.079 -1.074,0.114 -1.068,0.128L-0.992,0.128C-0.876,0.128 -0.758,0.114 -0.494,0.114C-0.449,0.114 -0.264,0.123 -0.177,0.123L0.005,0.123C0.015,0.104 0.025,0.089 0.025,0.07C0.025,0.054 0.015,0.016 0,0" style="fill-rule:nonzero;"/>
                    </g>
                    <g transform="matrix(2.2589,0,0,-2.2589,436.47,564.67)">
                        <path d="M0,0C-0.02,0 -0.04,0.006 -0.071,0.011C-0.128,0.159 -0.199,0.298 -0.259,0.371C-0.361,0.494 -0.463,0.579 -0.728,0.608C-0.783,0.613 -0.926,0.613 -0.972,0.613L-0.977,-0.468C-0.977,-0.637 -0.977,-0.841 -0.972,-1.21C-0.967,-1.497 -0.834,-1.497 -0.53,-1.537C-0.514,-1.566 -0.51,-1.586 -0.51,-1.605C-0.51,-1.624 -0.514,-1.644 -0.523,-1.665L-0.635,-1.665C-0.815,-1.665 -1.165,-1.655 -1.272,-1.655C-1.349,-1.655 -1.735,-1.669 -1.918,-1.669C-1.934,-1.644 -1.94,-1.644 -1.94,-1.605C-1.94,-1.586 -1.934,-1.566 -1.924,-1.542C-1.522,-1.511 -1.481,-1.438 -1.466,-1.314C-1.456,-1.235 -1.456,-0.909 -1.456,-0.582L-1.456,0.317C-1.456,0.425 -1.46,0.541 -1.476,0.613C-1.552,0.613 -1.801,0.613 -1.873,0.589C-2.077,0.515 -2.218,0.346 -2.376,0.05C-2.398,0.04 -2.427,0.04 -2.443,0.04C-2.469,0.04 -2.488,0.05 -2.504,0.065L-2.504,0.698C-2.504,0.752 -2.494,0.767 -2.427,0.767C-2.366,0.767 -2.274,0.762 -2.152,0.762C-2.061,0.762 -1.696,0.758 -1.231,0.758C-0.626,0.758 -0.173,0.771 -0.06,0.771C0,0.771 0.041,0.771 0.06,0.752C0.071,0.742 0.066,0.698 0.066,0.662L0.066,0.031C0.051,0.011 0.025,0 0,0" style="fill-rule:nonzero;"/>
                    </g>
                    <g transform="matrix(2.2589,0,0,-2.2589,439.72,564.07)">
                        <path d="M0,0L-0.005,0C-0.056,-0.094 -0.153,-0.306 -0.188,-0.396C-0.32,-0.711 -0.366,-0.819 -0.391,-0.865L0.361,-0.865C0.305,-0.721 0.113,-0.271 0,0M1.593,-1.942L1.395,-1.942C1.268,-1.942 1.12,-1.928 0.972,-1.928C0.733,-1.928 0.427,-1.942 0.311,-1.942C0.295,-1.933 0.29,-1.907 0.29,-1.883C0.29,-1.863 0.295,-1.843 0.305,-1.823C0.549,-1.813 0.652,-1.774 0.652,-1.675C0.652,-1.636 0.646,-1.556 0.57,-1.359C0.499,-1.18 0.459,-1.097 0.439,-1.053C0.427,-1.038 0.422,-1.027 0.366,-1.027L-0.427,-1.027C-0.478,-1.087 -0.544,-1.26 -0.616,-1.498C-0.631,-1.556 -0.631,-1.616 -0.631,-1.636C-0.631,-1.715 -0.555,-1.809 -0.275,-1.813C-0.26,-1.843 -0.254,-1.863 -0.254,-1.883C-0.254,-1.897 -0.254,-1.917 -0.266,-1.937L-0.331,-1.937C-0.519,-1.937 -0.575,-1.928 -0.769,-1.928C-0.9,-1.928 -1.212,-1.937 -1.313,-1.937C-1.323,-1.917 -1.328,-1.907 -1.328,-1.888C-1.328,-1.868 -1.328,-1.853 -1.313,-1.823C-1.164,-1.794 -1.022,-1.75 -0.952,-1.646C-0.911,-1.586 -0.779,-1.359 -0.631,-1.008C-0.493,-0.681 -0.32,-0.268 -0.244,-0.094C-0.141,0.119 -0.106,0.188 -0.071,0.261C-0.015,0.371 0.042,0.479 0.067,0.519C0.087,0.548 0.138,0.563 0.162,0.563C0.204,0.563 0.254,0.538 0.275,0.513C0.301,0.469 0.326,0.42 0.336,0.39C0.478,0.054 0.596,-0.247 0.779,-0.668C0.87,-0.879 0.917,-1.013 1.018,-1.235C1.084,-1.374 1.129,-1.477 1.196,-1.605C1.293,-1.789 1.445,-1.794 1.593,-1.828C1.603,-1.848 1.618,-1.863 1.618,-1.888C1.618,-1.907 1.609,-1.923 1.593,-1.942" style="fill-rule:nonzero;"/>
                    </g>
                    <g transform="matrix(2.2589,0,0,-2.2589,452.13,568.45)">
                        <path d="M0,0L-1.019,0.009L-1.304,0.009C-1.314,0.03 -1.319,0.058 -1.319,0.074C-1.319,0.104 -1.314,0.109 -1.298,0.133C-1.243,0.138 -1.11,0.133 -1.045,0.158C-0.943,0.202 -0.901,0.302 -0.901,0.45L-0.901,1.883C-0.901,1.883 -0.896,2.14 -0.896,2.215L-0.907,2.215L-1.442,1.072C-1.502,0.943 -1.568,0.81 -1.629,0.672C-1.751,0.405 -1.818,0.223 -1.853,0.118C-1.868,0.074 -1.91,0.074 -1.934,0.074C-1.966,0.074 -1.991,0.084 -2.011,0.138C-2.077,0.286 -2.122,0.385 -2.147,0.444L-2.994,2.243L-3.007,2.243L-3.007,1.784L-2.994,0.637C-2.988,0.286 -2.804,0.123 -2.514,0.123C-2.504,0.104 -2.495,0.074 -2.495,0.065C-2.495,0.05 -2.5,0.025 -2.51,0.005C-2.529,0.005 -2.586,0 -2.642,0C-2.678,0 -2.86,0.014 -3.13,0.014C-3.206,0.014 -3.364,0.009 -3.486,0.009L-3.655,0.009C-3.664,0.03 -3.67,0.05 -3.67,0.069C-3.67,0.079 -3.664,0.104 -3.655,0.123C-3.588,0.138 -3.338,0.198 -3.288,0.247C-3.237,0.296 -3.191,0.4 -3.191,0.642L-3.186,1.22L-3.191,1.903C-3.196,2.105 -3.216,2.178 -3.319,2.249C-3.359,2.278 -3.517,2.297 -3.649,2.313C-3.664,2.337 -3.67,2.361 -3.67,2.382C-3.67,2.397 -3.664,2.42 -3.649,2.446C-3.553,2.446 -3.375,2.436 -3.202,2.436L-2.586,2.436C-2.566,2.42 -2.549,2.411 -2.535,2.376L-1.782,0.717L-1.644,1.047C-1.532,1.314 -1.359,1.715 -1.119,2.149C-1.069,2.243 -1.003,2.366 -0.967,2.432L-0.011,2.446C0,2.426 0.014,2.411 0.014,2.388C0.014,2.361 0.004,2.347 -0.006,2.322C-0.108,2.308 -0.291,2.308 -0.378,2.165C-0.408,2.12 -0.429,2.076 -0.429,1.872L-0.429,0.691C-0.429,0.236 -0.311,0.192 -0.255,0.158C-0.23,0.138 -0.083,0.123 0,0.123C0.014,0.099 0.019,0.084 0.019,0.058C0.019,0.025 0.01,0.019 0,0" style="fill-rule:nonzero;"/>
                    </g>
                    <g transform="matrix(2.2589,0,0,-2.2589,436.34,573.36)">
                        <path d="M0,0C-0.019,0 -0.039,0.004 -0.071,0.01C-0.127,0.158 -0.199,0.296 -0.259,0.371C-0.361,0.495 -0.463,0.578 -0.728,0.607C-0.784,0.612 -0.925,0.612 -0.972,0.612L-0.976,-0.469C-0.976,-0.638 -0.976,-0.84 -0.972,-1.211C-0.966,-1.498 -0.834,-1.498 -0.53,-1.536C-0.514,-1.567 -0.509,-1.586 -0.509,-1.607C-0.509,-1.627 -0.514,-1.646 -0.523,-1.665L-0.635,-1.665C-0.815,-1.665 -1.166,-1.655 -1.272,-1.655C-1.347,-1.655 -1.735,-1.671 -1.917,-1.671C-1.933,-1.646 -1.938,-1.646 -1.938,-1.607C-1.938,-1.586 -1.933,-1.567 -1.922,-1.542C-1.521,-1.512 -1.48,-1.438 -1.466,-1.315C-1.456,-1.236 -1.456,-0.909 -1.456,-0.584L-1.456,0.316C-1.456,0.425 -1.46,0.538 -1.475,0.612C-1.552,0.612 -1.8,0.612 -1.873,0.588C-2.077,0.514 -2.218,0.346 -2.377,0.048C-2.395,0.039 -2.427,0.039 -2.442,0.039C-2.468,0.039 -2.489,0.048 -2.502,0.063L-2.502,0.696C-2.502,0.751 -2.493,0.766 -2.427,0.766C-2.367,0.766 -2.275,0.76 -2.152,0.76C-2.061,0.76 -1.693,0.756 -1.231,0.756C-0.626,0.756 -0.173,0.771 -0.06,0.771C0,0.771 0.042,0.771 0.06,0.751C0.072,0.74 0.066,0.696 0.066,0.661L0.066,0.03C0.051,0.01 0.025,0 0,0" style="fill-rule:nonzero;"/>
                    </g>
                    <g transform="matrix(2.2589,0,0,-2.2589,443.43,571.91)">
                        <path d="M0,0C-0.228,-0.015 -0.38,-0.134 -0.452,-0.286L-1.409,-2.362C-1.409,-2.362 -1.454,-2.391 -1.485,-2.391C-1.514,-2.391 -1.55,-2.362 -1.572,-2.297C-1.597,-2.224 -1.714,-1.932 -1.969,-1.368L-2.275,-0.691C-2.386,-0.439 -2.473,-0.277 -2.502,-0.226C-2.615,-0.039 -2.751,-0.024 -2.904,0C-2.925,0.026 -2.925,0.045 -2.925,0.065C-2.925,0.085 -2.925,0.098 -2.909,0.124L-2.751,0.124C-2.575,0.124 -2.421,0.114 -2.289,0.114C-2.13,0.114 -1.867,0.129 -1.688,0.129L-1.587,0.129C-1.566,0.124 -1.562,0.089 -1.562,0.074C-1.562,0.065 -1.562,0.026 -1.572,0.005C-1.694,-0.005 -1.953,0 -1.953,-0.157C-1.953,-0.192 -1.948,-0.252 -1.928,-0.296L-1.301,-1.749L-0.772,-0.543C-0.712,-0.406 -0.707,-0.286 -0.707,-0.226C-0.707,-0.088 -0.803,-0.03 -1.068,0C-1.073,0.02 -1.082,0.04 -1.082,0.06C-1.082,0.079 -1.073,0.114 -1.068,0.129L-0.992,0.129C-0.874,0.129 -0.757,0.114 -0.493,0.114C-0.446,0.114 -0.263,0.124 -0.177,0.124L0.006,0.124C0.016,0.104 0.026,0.089 0.026,0.07C0.026,0.054 0.016,0.016 0,0" style="fill-rule:nonzero;"/>
                    </g>
                    <g transform="matrix(2.2589,0,0,-2.2589,452.25,577.14)">
                        <path d="M0,0L-1.019,0.01L-1.304,0.01C-1.314,0.029 -1.318,0.059 -1.318,0.073C-1.318,0.102 -1.314,0.108 -1.298,0.133C-1.241,0.139 -1.11,0.133 -1.044,0.157C-0.942,0.202 -0.901,0.3 -0.901,0.449L-0.901,1.882C-0.901,1.882 -0.897,2.139 -0.897,2.213L-0.907,2.213L-1.44,1.071C-1.501,0.943 -1.568,0.81 -1.628,0.671C-1.751,0.404 -1.818,0.221 -1.852,0.118C-1.868,0.073 -1.908,0.073 -1.934,0.073C-1.965,0.073 -1.991,0.083 -2.01,0.139C-2.077,0.286 -2.122,0.385 -2.148,0.445L-2.992,2.243L-3.008,2.243L-3.008,1.783L-2.992,0.637C-2.988,0.286 -2.804,0.123 -2.514,0.123C-2.504,0.102 -2.495,0.073 -2.495,0.064C-2.495,0.048 -2.498,0.024 -2.509,0.004C-2.529,0.004 -2.585,0 -2.642,0C-2.678,0 -2.86,0.014 -3.129,0.014C-3.206,0.014 -3.364,0.01 -3.485,0.01L-3.655,0.01C-3.664,0.029 -3.669,0.048 -3.669,0.067C-3.669,0.079 -3.664,0.102 -3.655,0.123C-3.588,0.139 -3.339,0.198 -3.287,0.246C-3.238,0.296 -3.191,0.4 -3.191,0.643L-3.186,1.219L-3.191,1.902C-3.195,2.104 -3.217,2.178 -3.318,2.249C-3.359,2.277 -3.517,2.298 -3.65,2.312C-3.664,2.336 -3.669,2.362 -3.669,2.381C-3.669,2.395 -3.664,2.421 -3.65,2.446C-3.553,2.446 -3.374,2.434 -3.2,2.434L-2.585,2.434C-2.566,2.421 -2.549,2.411 -2.535,2.376L-1.782,0.715L-1.644,1.047C-1.532,1.314 -1.36,1.714 -1.12,2.149C-1.07,2.243 -1.003,2.367 -0.967,2.431L-0.011,2.446C0,2.426 0.015,2.411 0.015,2.386C0.015,2.362 0.004,2.346 -0.007,2.321C-0.108,2.307 -0.291,2.307 -0.377,2.163C-0.408,2.119 -0.428,2.074 -0.428,1.873L-0.428,0.691C-0.428,0.237 -0.311,0.193 -0.256,0.157C-0.23,0.139 -0.083,0.123 0,0.123C0.015,0.098 0.02,0.083 0.02,0.059C0.02,0.024 0.01,0.019 0,0" style="fill-rule:nonzero;"/>
                    </g>
                </g>
            </g>
        </g>
    </g>
    <rect x="0" y="0" width="300" height="300" style="fill:none;"/>
</svg>
